<?xml version="1.0" encoding="UTF-8" standalone="no"?><!DOCTYPE svg PUBLIC "-//W3C//DTD SVG 1.1//EN" "http://www.w3.org/Graphics/SVG/1.1/DTD/svg11.dtd"><svg width="100%" height="100%" viewBox="0 0 1152 881" version="1.1" xmlns="http://www.w3.org/2000/svg" xmlns:xlink="http://www.w3.org/1999/xlink" xml:space="preserve" xmlns:serif="http://www.serif.com/" style="fill-rule:evenodd;clip-rule:evenodd;stroke-linejoin:round;stroke-miterlimit:1.41421;"><path d="M362.644,596.461l164.997,-94.085c6.034,-3.484 5.278,-9.568 -1.691,-13.59l-94.934,-54.813c-6.966,-4.022 -17.507,-4.459 -23.541,-0.975l-164.997,94.085c-6.034,3.481 -5.278,9.565 1.691,13.587l94.934,54.813c6.969,4.025 17.506,4.459 23.541,0.978Z" style="fill:#d4ebfa;fill-rule:nonzero;"/><path d="M227.766,495.411l0,-385.197l153.131,-40.075l28.209,-16.285c6.472,-3.74 17.778,-3.268 25.256,1.044l26.313,15.197l81.678,-0.047l-24.187,371.85c0.187,2.528 -1.225,4.969 -4.338,6.766l-152.815,115.306c-6.472,3.738 -17.782,3.269 -25.254,-1.047l-101.843,-58.797c-4.313,-2.49 -6.391,-5.715 -6.15,-8.715Z" style="fill:#386dab;fill-rule:nonzero;"/><path d="M420.825,51.351c4.734,0.113 9.653,1.307 13.537,3.547l26.313,15.197l81.678,-0.047l0,386.228c0.185,2.528 -1.225,4.969 -4.337,6.769l-177.003,100.925c-3.11,1.797 -7.341,2.609 -11.719,2.503l-1.825,-388.64l73.356,-126.482Z" style="fill:#d4ebfa;fill-rule:nonzero;"/><path d="M359.388,564.767c-5.585,2.391 -13.66,2.259 -20.185,-0.231l0,-391.297l20.185,0l0,391.528Z" style="fill:#5593ce;fill-rule:nonzero;"/><path d="M361.013,177.879l177.003,-100.931c6.475,-3.734 5.662,-10.262 -1.813,-14.581l-101.841,-58.797c-7.478,-4.316 -18.784,-4.784 -25.256,-1.047l-177.003,100.925c-6.475,3.741 -5.662,10.266 1.813,14.581l101.843,58.8c7.475,4.319 18.782,4.785 25.254,1.05Z" style="fill:#d4ebfa;fill-rule:nonzero;"/><path d="M233.916,110.87l101.843,58.8c7.475,4.316 18.782,4.781 25.254,1.047l177.003,-100.928c1.443,-0.831 2.503,-1.813 3.231,-2.866c2.225,3.578 1.212,7.46 -3.231,10.025l-177.003,100.928c-6.472,3.738 -17.779,3.272 -25.254,-1.047l-101.843,-58.8c-5.807,-3.353 -7.572,-8.037 -5.044,-11.715c1.016,1.634 2.703,3.203 5.044,4.556Z" style="fill:#fbfeff;fill-rule:nonzero;"/><path d="M356.006,136.973l117.844,-68.309c3.028,-1.75 2.65,-4.803 -0.847,-6.825l-47.659,-27.513c-3.497,-2.022 -8.791,-2.24 -11.816,-0.493l-117.844,68.312c-3.031,1.75 -2.65,4.803 0.847,6.822l47.656,27.516c3.497,2.018 8.791,2.237 11.819,0.49Z" style="fill:#1f3e79;fill-rule:nonzero;"/><path d="M419.628,71.729l6.825,-3.94c0.422,-0.244 0.369,-0.663 -0.116,-0.944l-6.593,-3.806c-0.481,-0.281 -1.216,-0.313 -1.635,-0.069l-6.828,3.941c-0.419,0.243 -0.365,0.665 0.116,0.947l6.594,3.806c0.487,0.281 1.215,0.309 1.637,0.065Z" style="fill:#d4ebfa;fill-rule:nonzero;"/><path d="M396.812,84.851l6.832,-3.943c0.415,-0.244 0.365,-0.666 -0.119,-0.947l-6.594,-3.807c-0.484,-0.281 -1.218,-0.309 -1.634,-0.065l-6.831,3.944c-0.419,0.24 -0.366,0.659 0.118,0.94l6.594,3.806c0.485,0.282 1.216,0.313 1.634,0.072Z" style="fill:#d4ebfa;fill-rule:nonzero;"/><path d="M374,97.967l6.828,-3.944c0.422,-0.24 0.366,-0.665 -0.116,-0.944l-6.596,-3.806c-0.482,-0.278 -1.213,-0.309 -1.632,-0.069l-6.831,3.944c-0.416,0.241 -0.365,0.666 0.116,0.944l6.597,3.806c0.484,0.278 1.212,0.31 1.634,0.069Z" style="fill:#d4ebfa;fill-rule:nonzero;"/><path d="M351.184,111.083l6.832,-3.941c0.418,-0.244 0.365,-0.666 -0.119,-0.947l-6.591,-3.803c-0.487,-0.281 -1.219,-0.313 -1.637,-0.069l-6.828,3.941c-0.419,0.244 -0.369,0.665 0.118,0.944l6.591,3.806c0.484,0.281 1.219,0.312 1.634,0.069Z" style="fill:#d4ebfa;fill-rule:nonzero;"/><path d="M473.85,68.664l-0.141,0.078l-0.706,-0.484l-47.659,-27.519c-3.497,-2.016 -8.791,-2.238 -11.816,-0.488l-117.706,68.232c-2.791,-2 -2.938,-4.722 -0.138,-6.338l117.844,-68.312c3.025,-1.747 8.319,-1.529 11.816,0.493l47.659,27.513c3.497,2.022 3.875,5.075 0.847,6.825Z" style="fill:#5593ce;fill-rule:nonzero;"/><path d="M315.875,254.195l-67.003,-38.366c-3.772,-2.175 -6.828,-8.015 -6.828,-13.043l0,-23.963c0,-5.025 3.056,-7.334 6.828,-5.159l67.003,38.362c3.769,2.178 6.825,8.019 6.825,13.044l0,23.963c0,5.028 -3.056,7.337 -6.825,5.162Z" style="fill:#1f3e79;fill-rule:nonzero;"/><path d="M245.556,172.942c-1.056,0.994 -1.715,2.687 -1.715,4.984l0,23.96c0,5.031 3.056,10.868 6.828,13.047l67,38.359c1.212,0.7 2.331,0.894 3.318,0.725c-1.25,1.181 -3.068,1.356 -5.112,0.178l-67.003,-38.366c-3.772,-2.175 -6.828,-8.015 -6.828,-13.043l0,-23.963c0,-3.409 1.425,-5.525 3.512,-5.881Z" style="fill:#fff;fill-rule:nonzero;"/><path d="M295.722,228.164l-6.147,-3.547c-0.822,-0.478 -1.487,-1.75 -1.487,-2.844l0,-6.565c0,-1.097 0.665,-1.6 1.487,-1.125l6.147,3.546c0.822,0.479 1.487,1.75 1.487,2.844l0,6.566c0,1.097 -0.665,1.6 -1.487,1.125Z" style="fill:#386dab;fill-rule:nonzero;"/><path d="M275.169,216.301l-6.147,-3.55c-0.822,-0.478 -1.488,-1.75 -1.488,-2.843l0,-6.566c0,-1.097 0.666,-1.6 1.488,-1.125l6.147,3.547c0.822,0.475 1.487,1.75 1.487,2.847l0,6.562c0,1.097 -0.665,1.6 -1.487,1.128Z" style="fill:#fff;fill-rule:nonzero;"/><path d="M315.875,427.339l-67.003,-38.366c-3.772,-2.175 -6.828,-8.015 -6.828,-13.04l0,-23.963c0,-5.028 3.056,-7.337 6.828,-5.162l67.003,38.365c3.769,2.175 6.825,8.016 6.825,13.041l0,23.959c0,5.031 -3.056,7.341 -6.825,5.166Z" style="fill:#1f3e79;fill-rule:nonzero;"/><path d="M245.556,346.086c-1.056,0.993 -1.715,2.687 -1.715,4.984l0,23.959c0,5.032 3.056,10.869 6.828,13.047l67,38.363c1.212,0.697 2.331,0.89 3.318,0.722c-1.25,1.181 -3.068,1.359 -5.112,0.178l-67.003,-38.366c-3.772,-2.175 -6.828,-8.015 -6.828,-13.04l0,-23.963c0,-3.412 1.425,-5.528 3.512,-5.884Z" style="fill:#fff;fill-rule:nonzero;"/><path d="M295.722,401.311l-6.147,-3.55c-0.822,-0.475 -1.487,-1.75 -1.487,-2.844l0,-6.566c0,-1.093 0.665,-1.6 1.487,-1.125l6.147,3.55c0.822,0.472 1.487,1.747 1.487,2.844l0,6.563c0,1.096 -0.665,1.6 -1.487,1.128Z" style="fill:#386dab;fill-rule:nonzero;"/><path d="M275.169,389.442l-6.147,-3.547c-0.822,-0.475 -1.488,-1.75 -1.488,-2.844l0,-6.565c0,-1.094 0.666,-1.597 1.488,-1.125l6.147,3.55c0.822,0.472 1.487,1.747 1.487,2.843l0,6.563c0,1.097 -0.665,1.6 -1.487,1.125Z" style="fill:#fff;fill-rule:nonzero;"/><path d="M315.875,513.911l-67.003,-38.363c-3.772,-2.178 -6.828,-8.019 -6.828,-13.044l0,-23.962c0,-5.028 3.056,-7.338 6.828,-5.163l67.003,38.366c3.769,2.175 6.825,8.016 6.825,13.044l0,23.959c0,5.028 -3.056,7.338 -6.825,5.163Z" style="fill:#1f3e79;fill-rule:nonzero;"/><path d="M245.556,432.658c-1.056,0.993 -1.715,2.687 -1.715,4.987l0,23.959c0,5.029 3.056,10.866 6.828,13.044l67,38.363c1.212,0.697 2.331,0.89 3.318,0.722c-1.25,1.181 -3.068,1.359 -5.112,0.178l-67.003,-38.363c-3.772,-2.178 -6.828,-8.019 -6.828,-13.044l0,-23.962c0,-3.413 1.425,-5.528 3.512,-5.884Z" style="fill:#fff;fill-rule:nonzero;"/><path d="M295.722,487.883l-6.147,-3.55c-0.822,-0.475 -1.487,-1.75 -1.487,-2.844l0,-6.566c0,-1.094 0.665,-1.597 1.487,-1.125l6.147,3.55c0.822,0.472 1.487,1.747 1.487,2.844l0,6.562c0,1.097 -0.665,1.6 -1.487,1.129Z" style="fill:#386dab;fill-rule:nonzero;"/><path d="M275.169,476.014l-6.147,-3.547c-0.822,-0.475 -1.488,-1.747 -1.488,-2.844l0,-6.565c0,-1.094 0.666,-1.597 1.488,-1.125l6.147,3.55c0.822,0.471 1.487,1.743 1.487,2.843l0,6.566c0,1.094 -0.665,1.597 -1.487,1.122Z" style="fill:#fff;fill-rule:nonzero;"/><path d="M315.875,340.767l-67.003,-38.366c-3.772,-2.175 -6.828,-8.015 -6.828,-13.043l0,-23.963c0,-5.025 3.056,-7.334 6.828,-5.159l67.003,38.362c3.769,2.178 6.825,8.019 6.825,13.044l0,23.959c0,5.032 -3.056,7.341 -6.825,5.166Z" style="fill:#1f3e79;fill-rule:nonzero;"/><path d="M245.556,259.514c-1.056,0.994 -1.715,2.687 -1.715,4.984l0,23.96c0,5.031 3.056,10.868 6.828,13.046l67,38.363c1.212,0.697 2.331,0.891 3.318,0.722c-1.25,1.181 -3.068,1.359 -5.112,0.178l-67.003,-38.366c-3.772,-2.175 -6.828,-8.015 -6.828,-13.043l0,-23.963c0,-3.409 1.425,-5.525 3.512,-5.881Z" style="fill:#fff;fill-rule:nonzero;"/><path d="M295.722,314.739l-6.147,-3.55c-0.822,-0.478 -1.487,-1.75 -1.487,-2.844l0,-6.566c0,-1.096 0.665,-1.6 1.487,-1.125l6.147,3.547c0.822,0.475 1.487,1.75 1.487,2.847l0,6.563c0,1.097 -0.665,1.6 -1.487,1.128Z" style="fill:#386dab;fill-rule:nonzero;"/><path d="M275.169,302.87l-6.147,-3.547c-0.822,-0.475 -1.488,-1.75 -1.488,-2.844l0,-6.565c0,-1.094 0.666,-1.6 1.488,-1.125l6.147,3.55c0.822,0.472 1.487,1.747 1.487,2.844l0,6.562c0,1.097 -0.665,1.6 -1.487,1.125Z" style="fill:#fff;fill-rule:nonzero;"/><path d="M373.906,229.664l154.582,-89.247c3.459,-1.997 6.265,-7.356 6.265,-11.969l0,-29.475c0,-4.612 -2.806,-6.731 -6.265,-4.737l-154.582,89.25c-3.459,1.993 -6.265,7.353 -6.265,11.968l0,29.475c0,4.613 2.806,6.735 6.265,4.735Z" style="fill:#5593ce;fill-rule:nonzero;"/><path d="M377.081,219.711c-1.125,0 -1.915,-1.041 -1.915,-2.785l0,-22.159c0,-2.341 1.422,-5.059 3.178,-6.072l145.706,-84.122c0.447,-0.259 0.875,-0.381 1.262,-0.381c1.129,0 1.916,1.041 1.916,2.781l0,22.16c0,2.34 -1.425,5.059 -3.178,6.071l-145.706,84.125c-0.45,0.26 -0.875,0.382 -1.263,0.382Z" style="fill:#8ab7e2;fill-rule:nonzero;"/><path d="M493.684,141.536l21.744,-12.557c1.706,-0.981 3.088,-3.621 3.088,-5.896c0,-2.272 -1.382,-3.316 -3.088,-2.335l-21.744,12.556c-1.703,0.985 -3.084,3.625 -3.084,5.9c0,2.269 1.381,3.316 3.084,2.332Z" style="fill:#d4ebfa;fill-rule:nonzero;"/><path d="M475.153,148.117c0,2.275 1.597,3.197 3.566,2.059c1.968,-1.137 3.565,-3.9 3.565,-6.172c0,-2.275 -1.597,-3.196 -3.565,-2.056c-1.969,1.135 -3.566,3.9 -3.566,6.169Z" style="fill:#1f3e79;fill-rule:nonzero;"/><path d="M462.581,155.376c0,2.275 1.597,3.194 3.566,2.06c1.966,-1.138 3.562,-3.9 3.562,-6.175c0,-2.272 -1.596,-3.191 -3.562,-2.057c-1.969,1.138 -3.566,3.9 -3.566,6.172Z" style="fill:#1f3e79;fill-rule:nonzero;"/><path d="M450.009,162.639c0,2.269 1.594,3.19 3.563,2.056c1.969,-1.137 3.566,-3.9 3.566,-6.175c0,-2.272 -1.597,-3.194 -3.566,-2.056c-1.969,1.134 -3.563,3.9 -3.563,6.175Z" style="fill:#d4ebfa;fill-rule:nonzero;"/><path d="M437.434,169.895c0,2.272 1.597,3.194 3.566,2.056c1.969,-1.134 3.562,-3.9 3.562,-6.168c0,-2.275 -1.593,-3.197 -3.562,-2.063c-1.969,1.141 -3.566,3.9 -3.566,6.175Z" style="fill:#1f3e79;fill-rule:nonzero;"/><path d="M384.472,206.989l7.325,-4.225c1.094,-0.635 1.978,-2.331 1.978,-3.788l0,-7.75c0,-1.459 -0.884,-2.131 -1.978,-1.497l-7.325,4.229c-1.094,0.631 -1.981,2.325 -1.981,3.784l0,7.753c0,1.453 0.887,2.125 1.981,1.494Z" style="fill:#1f3e79;fill-rule:nonzero;"/><path d="M373.906,281.645l154.582,-89.25c3.459,-2 6.265,-7.356 6.265,-11.969l0,-29.478c0,-4.612 -2.806,-6.731 -6.265,-4.734l-154.582,89.247c-3.459,1.997 -6.265,7.356 -6.265,11.968l0,29.479c0,4.612 2.806,6.731 6.265,4.737Z" style="fill:#5593ce;fill-rule:nonzero;"/><path d="M377.081,271.689c-1.125,0 -1.915,-1.041 -1.915,-2.781l0,-22.163c0,-2.341 1.422,-5.059 3.178,-6.075l145.706,-84.122c0.447,-0.256 0.875,-0.381 1.262,-0.381c1.129,0 1.916,1.041 1.916,2.784l0,22.16c0,2.34 -1.425,5.059 -3.178,6.072l-145.706,84.125c-0.45,0.259 -0.875,0.381 -1.263,0.381Z" style="fill:#8ab7e2;fill-rule:nonzero;"/><path d="M493.684,193.514l21.744,-12.556c1.706,-0.982 3.088,-3.622 3.088,-5.897c0,-2.272 -1.382,-3.316 -3.088,-2.335l-21.744,12.557c-1.703,0.984 -3.084,3.625 -3.084,5.896c0,2.272 1.381,3.319 3.084,2.335Z" style="fill:#d4ebfa;fill-rule:nonzero;"/><path d="M475.153,200.095c0,2.275 1.597,3.194 3.566,2.059c1.968,-1.137 3.565,-3.9 3.565,-6.171c0,-2.275 -1.597,-3.197 -3.565,-2.06c-1.969,1.138 -3.566,3.9 -3.566,6.172Z" style="fill:#fff;fill-rule:nonzero;"/><path d="M462.581,207.354c0,2.275 1.597,3.197 3.566,2.057c1.966,-1.135 3.562,-3.9 3.562,-6.169c0,-2.275 -1.596,-3.197 -3.562,-2.059c-1.969,1.137 -3.566,3.9 -3.566,6.171Z" style="fill:#1f3e79;fill-rule:nonzero;"/><path d="M450.009,214.614c0,2.272 1.594,3.194 3.563,2.059c1.969,-1.137 3.566,-3.9 3.566,-6.175c0,-2.272 -1.597,-3.19 -3.566,-2.056c-1.969,1.134 -3.563,3.9 -3.563,6.172Z" style="fill:#d4ebfa;fill-rule:nonzero;"/><path d="M437.434,221.873c0,2.272 1.597,3.194 3.566,2.06c1.969,-1.138 3.562,-3.9 3.562,-6.175c0,-2.272 -1.593,-3.194 -3.562,-2.057c-1.969,1.135 -3.566,3.9 -3.566,6.172Z" style="fill:#1f3e79;fill-rule:nonzero;"/><path d="M384.472,258.967l7.325,-4.228c1.094,-0.631 1.978,-2.325 1.978,-3.785l0,-7.75c0,-1.459 -0.884,-2.128 -1.978,-1.496l-7.325,4.228c-1.094,0.631 -1.981,2.325 -1.981,3.784l0,7.75c0,1.459 0.887,2.128 1.981,1.497Z" style="fill:#1f3e79;fill-rule:nonzero;"/><path d="M373.906,333.62l154.582,-89.247c3.459,-1.997 6.265,-7.356 6.265,-11.969l0,-29.478c0,-4.609 -2.806,-6.731 -6.265,-4.734l-154.582,89.247c-3.459,2 -6.265,7.359 -6.265,11.969l0,29.478c0,4.612 2.806,6.731 6.265,4.734Z" style="fill:#5593ce;fill-rule:nonzero;"/><path d="M377.081,323.667c-1.125,0 -1.915,-1.041 -1.915,-2.784l0,-22.157c0,-2.343 1.422,-5.062 3.178,-6.075l145.706,-84.125c0.447,-0.259 0.875,-0.381 1.262,-0.381c1.129,0 1.916,1.041 1.916,2.784l0,22.163c0,2.341 -1.425,5.059 -3.178,6.072l-145.706,84.122c-0.45,0.259 -0.875,0.381 -1.263,0.381Z" style="fill:#8ab7e2;fill-rule:nonzero;"/><path d="M493.684,245.489l21.744,-12.55c1.706,-0.988 3.088,-3.625 3.088,-5.9c0,-2.272 -1.382,-3.316 -3.088,-2.331l-21.744,12.553c-1.703,0.984 -3.084,3.625 -3.084,5.897c0,2.275 1.381,3.318 3.084,2.331Z" style="fill:#d4ebfa;fill-rule:nonzero;"/><path d="M475.153,252.076c0,2.269 1.597,3.191 3.566,2.057c1.968,-1.138 3.565,-3.9 3.565,-6.175c0,-2.272 -1.597,-3.191 -3.565,-2.057c-1.969,1.135 -3.566,3.9 -3.566,6.175Z" style="fill:#fff;fill-rule:nonzero;"/><path d="M462.581,259.333c0,2.275 1.597,3.196 3.566,2.056c1.966,-1.135 3.562,-3.9 3.562,-6.169c0,-2.275 -1.596,-3.197 -3.562,-2.059c-1.969,1.137 -3.566,3.9 -3.566,6.172Z" style="fill:#1f3e79;fill-rule:nonzero;"/><path d="M450.009,266.592c0,2.275 1.594,3.194 3.563,2.056c1.969,-1.134 3.566,-3.9 3.566,-6.172c0,-2.272 -1.597,-3.193 -3.566,-2.056c-1.969,1.134 -3.563,3.9 -3.563,6.172Z" style="fill:#d4ebfa;fill-rule:nonzero;"/><path d="M437.434,273.851c0,2.272 1.597,3.194 3.566,2.06c1.969,-1.141 3.562,-3.9 3.562,-6.175c0,-2.272 -1.593,-3.194 -3.562,-2.057c-1.969,1.135 -3.566,3.9 -3.566,6.172Z" style="fill:#1f3e79;fill-rule:nonzero;"/><path d="M384.472,310.948l7.325,-4.231c1.094,-0.631 1.978,-2.325 1.978,-3.784l0,-7.75c0,-1.46 -0.884,-2.129 -1.978,-1.497l-7.325,4.228c-1.094,0.631 -1.981,2.328 -1.981,3.787l0,7.747c0,1.46 0.887,2.128 1.981,1.5Z" style="fill:#1f3e79;fill-rule:nonzero;"/><path d="M373.906,385.598l154.582,-89.247c3.459,-1.997 6.265,-7.356 6.265,-11.968l0,-29.479c0,-4.612 -2.806,-6.731 -6.265,-4.734l-154.582,89.247c-3.459,2 -6.265,7.356 -6.265,11.969l0,29.478c0,4.612 2.806,6.731 6.265,4.734Z" style="fill:#5593ce;fill-rule:nonzero;"/><path d="M377.081,375.645c-1.125,0 -1.915,-1.041 -1.915,-2.784l0,-22.16c0,-2.34 1.422,-5.059 3.178,-6.072l145.706,-84.125c0.447,-0.259 0.875,-0.381 1.259,-0.381c1.129,0 1.919,1.044 1.919,2.788l0,22.156c0,2.341 -1.425,5.062 -3.178,6.075l-145.706,84.122c-0.45,0.259 -0.875,0.381 -1.263,0.381Z" style="fill:#8ab7e2;fill-rule:nonzero;"/><path d="M493.684,297.47l21.744,-12.553c1.706,-0.988 3.088,-3.628 3.088,-5.9c0,-2.272 -1.382,-3.319 -3.088,-2.331l-21.744,12.553c-1.703,0.984 -3.084,3.625 -3.084,5.897c0,2.275 1.381,3.318 3.084,2.334Z" style="fill:#d4ebfa;fill-rule:nonzero;"/><path d="M475.153,304.054c0,2.272 1.597,3.191 3.566,2.057c1.968,-1.135 3.565,-3.9 3.565,-6.175c0,-2.269 -1.597,-3.191 -3.565,-2.057c-1.969,1.135 -3.566,3.9 -3.566,6.175Z" style="fill:#1f3e79;fill-rule:nonzero;"/><path d="M462.581,311.311c0,2.272 1.597,3.193 3.566,2.059c1.966,-1.137 3.562,-3.9 3.562,-6.175c0,-2.272 -1.596,-3.194 -3.562,-2.056c-1.969,1.137 -3.566,3.9 -3.566,6.172Z" style="fill:#1f3e79;fill-rule:nonzero;"/><path d="M450.009,318.57c0,2.275 1.594,3.197 3.563,2.056c1.969,-1.134 3.566,-3.9 3.566,-6.172c0,-2.271 -1.597,-3.193 -3.566,-2.056c-1.969,1.138 -3.563,3.9 -3.563,6.172Z" style="fill:#d4ebfa;fill-rule:nonzero;"/><path d="M437.434,325.829c0,2.272 1.597,3.194 3.566,2.06c1.969,-1.141 3.562,-3.903 3.562,-6.175c0,-2.275 -1.593,-3.194 -3.562,-2.056c-1.969,1.134 -3.566,3.9 -3.566,6.171Z" style="fill:#1f3e79;fill-rule:nonzero;"/><path d="M384.472,362.923l7.325,-4.228c1.094,-0.631 1.978,-2.325 1.978,-3.784l0,-7.747c0,-1.46 -0.884,-2.131 -1.978,-1.5l-7.325,4.231c-1.094,0.628 -1.981,2.325 -1.981,3.781l0,7.75c0,1.46 0.887,2.132 1.981,1.497Z" style="fill:#d4ebfa;fill-rule:nonzero;"/><path d="M373.906,437.576l154.582,-89.243c3.459,-2 6.265,-7.36 6.265,-11.975l0,-29.472c0,-4.616 -2.806,-6.735 -6.265,-4.738l-154.582,89.247c-3.459,1.997 -6.265,7.356 -6.265,11.972l0,29.475c0,4.612 2.806,6.734 6.265,4.734Z" style="fill:#5593ce;fill-rule:nonzero;"/><path d="M377.081,427.623c-1.128,0 -1.915,-1.044 -1.915,-2.784l0,-22.16c0,-2.34 1.422,-5.059 3.178,-6.071l145.706,-84.125c0.447,-0.26 0.875,-0.382 1.259,-0.382c1.129,0 1.919,1.044 1.919,2.785l0,22.159c0,2.341 -1.425,5.059 -3.178,6.075l-145.706,84.119c-0.45,0.262 -0.875,0.384 -1.263,0.384Z" style="fill:#8ab7e2;fill-rule:nonzero;"/><path d="M493.684,349.448l21.744,-12.556c1.706,-0.984 3.088,-3.625 3.088,-5.894c0,-2.275 -1.382,-3.322 -3.088,-2.334l-21.744,12.553c-1.703,0.984 -3.084,3.622 -3.084,5.897c0,2.272 1.381,3.315 3.084,2.334Z" style="fill:#d4ebfa;fill-rule:nonzero;"/><path d="M475.153,356.029c0,2.275 1.597,3.197 3.566,2.06c1.968,-1.138 3.565,-3.9 3.565,-6.175c0,-2.272 -1.597,-3.191 -3.565,-2.056c-1.969,1.137 -3.566,3.9 -3.566,6.171Z" style="fill:#1f3e79;fill-rule:nonzero;"/><path d="M462.581,363.292c0,2.269 1.597,3.191 3.566,2.056c1.966,-1.137 3.562,-3.9 3.562,-6.175c0,-2.272 -1.596,-3.194 -3.562,-2.056c-1.969,1.134 -3.566,3.9 -3.566,6.175Z" style="fill:#fff;fill-rule:nonzero;"/><path d="M450.009,370.548c0,2.272 1.594,3.194 3.563,2.056c1.969,-1.134 3.566,-3.9 3.566,-6.168c0,-2.275 -1.597,-3.197 -3.566,-2.063c-1.969,1.141 -3.563,3.9 -3.563,6.175Z" style="fill:#d4ebfa;fill-rule:nonzero;"/><path d="M437.434,377.808c0,2.275 1.597,3.193 3.566,2.056c1.969,-1.135 3.562,-3.9 3.562,-6.172c0,-2.272 -1.593,-3.194 -3.562,-2.056c-1.969,1.134 -3.566,3.9 -3.566,6.172Z" style="fill:#fff;fill-rule:nonzero;"/><path d="M384.472,414.901l7.325,-4.228c1.094,-0.631 1.978,-2.325 1.978,-3.784l0,-7.75c0,-1.456 -0.884,-2.128 -1.978,-1.497l-7.325,4.228c-1.094,0.631 -1.981,2.325 -1.981,3.784l0,7.75c0,1.46 0.887,2.129 1.981,1.497Z" style="fill:#d4ebfa;fill-rule:nonzero;"/><path d="M373.906,489.554l154.582,-89.246c3.459,-1.997 6.265,-7.357 6.265,-11.972l0,-29.472c0,-4.616 -2.806,-6.738 -6.265,-4.738l-154.582,89.247c-3.459,1.997 -6.265,7.356 -6.265,11.972l0,29.472c0,4.616 2.806,6.737 6.265,4.737Z" style="fill:#5593ce;fill-rule:nonzero;"/><path d="M377.084,479.601c-1.128,0 -1.918,-1.04 -1.918,-2.784l0,-22.159c0,-2.341 1.422,-5.06 3.178,-6.072l145.706,-84.122c0.447,-0.263 0.875,-0.385 1.262,-0.385c1.129,0 1.916,1.044 1.916,2.785l0,22.159c0,2.341 -1.425,5.06 -3.178,6.072l-145.706,84.125c-0.447,0.259 -0.875,0.381 -1.26,0.381Z" style="fill:#8ab7e2;fill-rule:nonzero;"/><path d="M493.684,401.426l21.744,-12.556c1.706,-0.981 3.088,-3.625 3.088,-5.897c0,-2.272 -1.382,-3.315 -3.088,-2.334l-21.744,12.556c-1.703,0.981 -3.084,3.625 -3.084,5.897c0,2.272 1.381,3.316 3.084,2.334Z" style="fill:#d4ebfa;fill-rule:nonzero;"/><path d="M475.153,408.008c0,2.275 1.597,3.196 3.566,2.056c1.968,-1.135 3.565,-3.9 3.565,-6.169c0,-2.275 -1.597,-3.197 -3.565,-2.059c-1.969,1.137 -3.566,3.9 -3.566,6.172Z" style="fill:#1f3e79;fill-rule:nonzero;"/><path d="M462.581,415.267c0,2.272 1.597,3.194 3.566,2.059c1.966,-1.137 3.562,-3.9 3.562,-6.175c0,-2.272 -1.596,-3.19 -3.562,-2.056c-1.969,1.134 -3.566,3.9 -3.566,6.172Z" style="fill:#1f3e79;fill-rule:nonzero;"/><path d="M450.009,422.526c0,2.272 1.594,3.194 3.563,2.06c1.969,-1.138 3.566,-3.9 3.566,-6.175c0,-2.272 -1.597,-3.194 -3.566,-2.057c-1.969,1.135 -3.563,3.9 -3.563,6.172Z" style="fill:#d4ebfa;fill-rule:nonzero;"/><path d="M437.434,429.786c0,2.275 1.597,3.193 3.566,2.056c1.969,-1.134 3.562,-3.9 3.562,-6.172c0,-2.272 -1.593,-3.194 -3.562,-2.059c-1.969,1.14 -3.566,3.9 -3.566,6.175Z" style="fill:#1f3e79;fill-rule:nonzero;"/><path d="M384.472,466.879l7.325,-4.228c1.094,-0.634 1.978,-2.328 1.978,-3.784l0,-7.75c0,-1.459 -0.884,-2.131 -1.978,-1.497l-7.325,4.228c-1.094,0.631 -1.981,2.325 -1.981,3.785l0,7.75c0,1.456 0.887,2.128 1.981,1.496Z" style="fill:#1f3e79;fill-rule:nonzero;"/><path d="M373.906,541.533l154.582,-89.247c3.459,-2 6.265,-7.357 6.265,-11.969l0,-29.478c0,-4.613 -2.806,-6.735 -6.265,-4.735l-154.582,89.247c-3.459,1.997 -6.265,7.357 -6.265,11.972l0,29.475c0,4.613 2.806,6.731 6.265,4.735Z" style="fill:#5593ce;fill-rule:nonzero;"/><path d="M377.084,531.579c-1.128,0 -1.918,-1.043 -1.918,-2.784l0,-22.159c0,-2.341 1.422,-5.06 3.178,-6.075l145.706,-84.122c0.447,-0.256 0.875,-0.381 1.262,-0.381c1.129,0 1.916,1.04 1.916,2.784l0,22.159c0,2.341 -1.425,5.06 -3.178,6.072l-145.706,84.125c-0.447,0.26 -0.875,0.381 -1.26,0.381Z" style="fill:#8ab7e2;fill-rule:nonzero;"/><path d="M493.684,453.404l21.744,-12.556c1.706,-0.981 3.088,-3.622 3.088,-5.897c0,-2.272 -1.382,-3.315 -3.088,-2.334l-21.744,12.556c-1.703,0.985 -3.084,3.625 -3.084,5.897c0,2.272 1.381,3.319 3.084,2.334Z" style="fill:#d4ebfa;fill-rule:nonzero;"/><path d="M471.181,462.798c0,4.294 3.016,6.035 6.731,3.891c3.719,-2.15 6.735,-7.369 6.735,-11.663c0,-4.293 -3.016,-6.034 -6.735,-3.887c-3.715,2.147 -6.731,7.365 -6.731,11.659Z" style="fill:#fff;fill-rule:nonzero;"/><path d="M445.141,478.036c0,2.275 1.597,3.197 3.565,2.062c1.963,-1.14 3.56,-3.9 3.56,-6.175c0,-2.275 -1.597,-3.194 -3.56,-2.056c-1.968,1.134 -3.565,3.9 -3.565,6.169Z" style="fill:#1f3e79;fill-rule:nonzero;"/><path d="M432.566,485.298c0,2.272 1.596,3.194 3.565,2.056c1.969,-1.134 3.563,-3.9 3.563,-6.175c0,-2.268 -1.594,-3.19 -3.563,-2.056c-1.969,1.138 -3.565,3.9 -3.565,6.175Z" style="fill:#d4ebfa;fill-rule:nonzero;"/><path d="M419.994,492.558c0,2.268 1.597,3.19 3.565,2.056c1.969,-1.138 3.563,-3.9 3.563,-6.175c0,-2.272 -1.594,-3.191 -3.563,-2.056c-1.968,1.137 -3.565,3.9 -3.565,6.175Z" style="fill:#1f3e79;fill-rule:nonzero;"/><path d="M384.472,518.858l7.325,-4.232c1.094,-0.628 1.978,-2.325 1.978,-3.784l0,-7.747c0,-1.459 -0.884,-2.131 -1.978,-1.5l-7.325,4.231c-1.094,0.632 -1.981,2.325 -1.981,3.785l0,7.747c0,1.459 0.887,2.131 1.981,1.5Z" style="fill:#d4ebfa;fill-rule:nonzero;"/><path d="M1002.09,622.351l-303.644,-175.393l342.287,16.125l21.26,20.337l4.622,30.506l-3.391,20.728l-10.169,25.182l-10.168,19.722l-11.397,14.79l-29.4,28.003Z" style="fill:#1f3e79;fill-rule:nonzero;"/><path d="M746.878,287.045c-0.519,-0.316 -1.044,-0.622 -1.581,-0.909l-0.097,-0.057l-0.006,0c-12.131,-6.493 -28.61,-5.312 -46.747,5.163l-414.766,239.462c1.766,1.325 3.322,2.919 4.772,4.641l15.722,-9.075l83.931,182.394l43.447,59.319l28.35,9.859l28.422,-11.109l137.969,-78.407l273.465,-156.368l100.3,-60.247l26.191,-8.319l23.559,-1.4l-302.931,-174.947Z" style="fill:#d4ebfa;fill-rule:nonzero;"/><path d="M419.103,732.761c0,-42.932 30.25,-95.322 67.428,-116.785l0,7.394c-33.65,19.428 -61.022,66.841 -61.022,105.694c0,38.853 27.372,54.656 61.022,35.231l515.56,-297.659c18.581,-10.732 35.431,-11.732 47.64,-4.694l-302.853,-174.897c-0.519,-0.316 -1.044,-0.622 -1.581,-0.909l-0.097,-0.057l-0.006,0c-12.131,-6.493 -28.61,-5.312 -46.747,5.163l-414.766,239.462c1.766,1.325 3.322,2.919 4.772,4.641l15.722,-9.078l83.931,182.397l34.713,47.394c-2.394,-6.594 -3.716,-14.388 -3.716,-23.297Z" style="fill:#d4ebfa;fill-rule:nonzero;"/><path d="M1049.81,461.992l0.003,0l-0.053,-0.031l0.05,0.031Z" style="fill:#d4ebfa;fill-rule:nonzero;"/><path d="M419.103,728.661c0,0.75 0.063,1.447 0.081,2.181c0.441,-21.428 8.232,-45.022 20.522,-65.878c-0.575,-0.363 -1.15,-0.731 -1.719,-1.106c-11.668,20.74 -18.884,43.884 -18.884,64.803Z" style="fill:#fff;fill-rule:nonzero;"/><path d="M1002.09,462.536l-515.56,297.656c-32.856,18.969 -59.712,4.334 -60.962,-32.534c-0.01,0.468 -0.06,0.943 -0.06,1.406c0,38.853 27.372,54.656 61.022,35.231l515.56,-297.659c18.581,-10.732 35.431,-11.732 47.64,-4.694l-14.653,-8.459c-9.762,-0.719 -21.009,2.137 -32.987,9.053Z" style="fill:#fff;fill-rule:nonzero;"/><path d="M388.106,704.564l-83.931,-182.4l-15.722,9.081c-0.631,-0.753 -1.294,-1.466 -1.975,-2.156l-2.797,1.615c1.766,1.325 3.322,2.919 4.772,4.641l15.722,-9.078l83.931,182.397l34.713,47.394c-0.763,-2.104 -1.372,-4.369 -1.91,-6.713l-32.803,-44.781Z" style="fill:#fff;fill-rule:nonzero;"/><path d="M1049.81,457.889l0.003,0l-0.053,-0.031l0.05,0.031Z" style="fill:#d4ebfa;fill-rule:nonzero;"/><path d="M182.891,440.579l-0.003,0c-37.179,21.466 -67.426,73.857 -67.426,116.785c0,20.728 7.066,35.5 18.544,42.834l0.013,0.022l0.184,0.106c0.681,0.432 1.378,0.835 2.091,1.207l302.534,174.812l-18.519,-33.478l2.154,-33.431l5.856,-18.794l8.934,-20.031c0,0 7.397,-13.71 7.859,-14.022c0.463,-0.31 10.938,-13.863 10.938,-13.863l10.187,-10.634l11.076,-7.084l9.218,-9.032l-303.64,-175.397Z" style="fill:#5593ce;fill-rule:nonzero;"/><path d="M1002.09,622.351l0,-7.393c33.643,-19.429 61.021,-66.841 61.021,-105.694c0,-38.853 -27.378,-54.66 -61.021,-35.231l-515.56,297.656c-37.178,21.465 -67.428,4.003 -67.428,-38.928c0,-42.932 30.25,-95.319 67.428,-116.785l0,7.394c-33.65,19.428 -61.022,66.841 -61.022,105.694c0,38.853 27.372,54.656 61.022,35.231l515.56,-297.656c37.178,-21.469 67.425,-4.003 67.425,38.925c0,42.931 -30.247,95.322 -67.425,116.787Z" style="fill:#1f3e79;fill-rule:nonzero;"/><path d="M760.638,517.62l-144.385,-81.509c-5.765,-3.247 -15.766,-2.728 -22.34,1.159l-82.501,48.794c-6.575,3.887 -7.231,9.669 -1.468,12.919l144.384,81.506c5.763,3.247 15.763,2.728 22.338,-1.163l82.5,-48.787c6.575,-3.888 7.234,-9.672 1.472,-12.919Z" style="fill:#5593ce;fill-rule:nonzero;"/><path d="M650.747,562.814l-148.428,-83.638c-2.938,-1.656 -4.335,-3.893 -4.406,-6.253l-0.079,0.056l-0.168,-16.528c0,0 5.212,4.278 8.284,6.788l92.484,-54.697c7.525,-4.45 18.972,-5.044 25.566,-1.328l141.872,79.944l10.85,-6.416l0.194,16.681l-0.066,-0.053c-0.037,2.859 -2.053,5.875 -6.103,8.269l-94.435,55.847c-7.521,4.45 -18.968,5.043 -25.565,1.328Z" style="fill:#d0108c;fill-rule:nonzero;"/><path d="M772.244,474.033l-148.431,-83.641c-6.597,-3.713 -18.044,-3.122 -25.566,1.328l-94.434,55.847c-7.526,4.45 -8.275,11.069 -1.682,14.787l148.428,83.638c6.597,3.719 18.044,3.125 25.569,-1.325l94.431,-55.847c7.525,-4.45 8.279,-11.069 1.685,-14.787Z" style="fill:#ed3795;fill-rule:nonzero;"/><path d="M650.559,545.992l-148.428,-83.638c-3.75,-2.112 -5.043,-5.165 -4.15,-8.221c0.697,1.431 1.913,2.759 3.816,3.831l148.431,83.634c6.594,3.719 18.041,3.122 25.563,-1.328l94.434,-55.844c3.244,-1.922 5.153,-4.243 5.828,-6.562c1.716,3.534 -0.137,7.787 -5.494,10.956l-94.431,55.844c-7.525,4.453 -18.972,5.047 -25.569,1.328Z" style="fill:#fff;fill-rule:nonzero;"/><path d="M616.528,452.348c5.466,-3.231 5.41,-8.378 -0.119,-11.494c-5.534,-3.118 -14.446,-3.025 -19.912,0.207c-5.466,3.234 -5.41,8.378 0.125,11.493c5.528,3.119 14.444,3.025 19.906,-0.206Z" style="fill:#fff;fill-rule:nonzero;"/><path d="M646.869,469.442c5.465,-3.231 5.409,-8.375 -0.122,-11.491c-5.531,-3.118 -14.444,-3.025 -19.91,0.207c-5.465,3.231 -5.409,8.378 0.122,11.493c5.532,3.119 14.444,3.025 19.91,-0.209Z" style="fill:#fff;fill-rule:nonzero;"/><path d="M677.206,486.539c5.466,-3.231 5.41,-8.378 -0.118,-11.497c-5.532,-3.116 -14.447,-3.019 -19.913,0.212c-5.466,3.232 -5.409,8.375 0.125,11.494c5.528,3.116 14.444,3.022 19.906,-0.209Z" style="fill:#fff;fill-rule:nonzero;"/><path d="M565.538,621.379l-120.997,-70.559l-7.594,4.341l121,70.556l7.591,-4.338Z" style="fill:#5593ce;fill-rule:nonzero;"/><path d="M562.166,581.12l-84.463,-49.253l-7.594,4.337l84.463,49.25l7.594,-4.334Z" style="fill:#5593ce;fill-rule:nonzero;"/><path d="M534.191,583.954l-73.072,-42.609l-7.591,4.338l73.072,42.609l7.591,-4.338Z" style="fill:#5593ce;fill-rule:nonzero;"/><path d="M582.119,611.898l-36.535,-21.303l-7.59,4.344l36.534,21.3l7.591,-4.341Z" style="fill:#5593ce;fill-rule:nonzero;"/><path d="M847.959,455.198l-120.996,-70.556l-7.591,4.337l121,70.557l7.587,-4.338Z" style="fill:#5593ce;fill-rule:nonzero;"/><path d="M844.587,414.936l-84.462,-49.253l-7.591,4.34l84.463,49.253l7.59,-4.34Z" style="fill:#5593ce;fill-rule:nonzero;"/><path d="M816.616,417.77l-73.072,-42.609l-7.594,4.34l73.072,42.61l7.594,-4.341Z" style="fill:#5593ce;fill-rule:nonzero;"/><path d="M864.544,445.72l-36.538,-21.306l-7.59,4.34l36.534,21.304l7.594,-4.338Z" style="fill:#5593ce;fill-rule:nonzero;"/><path d="M746.878,287.045c-0.519,-0.316 -1.044,-0.622 -1.581,-0.909l-0.097,-0.057l-0.006,0c-12.131,-6.493 -28.61,-5.312 -46.747,5.163l-34.813,20.1l48.935,28.25c2.365,1.362 4.506,1.353 6.087,0.244l0.007,0.006l59.668,-34.631l-31.453,-18.166Z" style="fill:#acd6f2;fill-rule:nonzero;"/><path d="M822.675,234.639l-15.703,-9.069l57.906,-33.431c2.735,-1.578 2.735,-4.147 0,-5.728l-59.156,-34.153c-2.734,-1.579 -7.185,-1.579 -9.919,0l-57.906,33.434l-15.706,-9.069l57.903,-33.434c11.397,-6.575 29.94,-6.575 41.334,0.003l59.156,34.153c11.394,6.578 11.394,17.284 0,23.859l-57.909,33.435Z" style="fill:#ed3795;fill-rule:nonzero;"/><path d="M848.019,238.633c0,-8.397 -5.103,-18.154 -11.403,-21.788l-104.916,-60.572c-2.819,-1.628 -5.394,-1.744 -7.384,-0.634l-0.007,-0.003l-125.268,72.793l121.14,91.282l123.413,-71.628c0.381,-0.172 0.75,-0.375 1.087,-0.635l0.003,0c2.063,-1.559 3.335,-4.622 3.335,-8.815Z" style="fill:#d4ebfa;fill-rule:nonzero;"/><path d="M720.181,319.711l123.413,-71.628c0.381,-0.172 0.75,-0.375 1.087,-0.635l0.003,0c2.063,-1.559 3.335,-4.622 3.335,-8.815c0,-4.01 -1.172,-8.322 -3.072,-12.135l-140.681,81.222l15.915,11.991Z" style="fill:#1f3e79;fill-rule:nonzero;"/><path d="M712.291,319.389l-104.916,-60.572c-6.297,-3.638 -11.4,-13.391 -11.4,-21.788c0,-8.393 5.103,-12.256 11.4,-8.618l104.916,60.572c6.297,3.634 11.403,13.39 11.403,21.787c0,8.397 -5.106,12.256 -11.403,8.619Z" style="fill:#5593ce;fill-rule:nonzero;"/><path d="M713.553,288.411l-104.916,-60.575c-2.896,-1.669 -5.531,-1.744 -7.54,-0.532c1.8,-0.55 3.956,-0.234 6.278,1.107l104.916,60.572c6.297,3.634 11.403,13.39 11.403,21.784l0,0.003c0,4.534 -1.5,7.731 -3.863,9.153c3.088,-0.94 5.125,-4.425 5.125,-9.728l0,-0.003c0,-8.394 -5.106,-18.147 -11.403,-21.781Z" style="fill:#fff;fill-rule:nonzero;"/><path d="M696.575,298.961l-12.613,-7.275c-1.256,-0.725 -2.271,-2.672 -2.271,-4.344c0,-1.672 1.015,-2.441 2.271,-1.719l12.613,7.275c1.256,0.728 2.272,2.672 2.272,4.344c0,1.675 -1.016,2.444 -2.272,1.719Z" style="fill:#fff;fill-rule:nonzero;"/><path d="M710.803,212.836c3.803,-2.25 3.769,-5.832 -0.084,-8.003c-3.85,-2.172 -10.057,-2.104 -13.863,0.143c-3.806,2.25 -3.765,5.835 0.085,8.007c3.85,2.168 10.056,2.103 13.862,-0.147Z" style="fill:#5593ce;fill-rule:nonzero;"/><path d="M731.928,224.742c3.806,-2.253 3.766,-5.834 -0.084,-8.006c-3.85,-2.169 -10.06,-2.107 -13.863,0.147c-3.803,2.25 -3.769,5.831 0.085,8.003c3.85,2.168 10.059,2.103 13.862,-0.144Z" style="fill:#fff;fill-rule:nonzero;"/><path d="M753.053,236.645c3.806,-2.25 3.769,-5.834 -0.081,-8.003c-3.853,-2.172 -10.059,-2.106 -13.866,0.144c-3.806,2.25 -3.765,5.834 0.088,8.003c3.85,2.172 10.053,2.106 13.859,-0.144Z" style="fill:#fff;fill-rule:nonzero;"/><path d="M575.744,863.939l329.034,-190.103c7.978,-4.607 6.975,-12.653 -2.234,-17.969c-9.21,-5.319 -23.144,-5.897 -31.122,-1.291l-329.038,190.103c-7.978,4.604 -6.975,12.647 2.235,17.969c9.212,5.319 23.147,5.894 31.125,1.291Z" style="fill:#f0f1f1;fill-opacity:0.403922;fill-rule:nonzero;"/><path d="M931.666,608.851c-0.275,-0.478 -0.816,-0.725 -1.354,-0.615l-17.518,3.622l6.768,11.778l11.95,-13.316c0.363,-0.403 0.426,-0.997 0.154,-1.469Z" style="fill:#d4ebfa;fill-rule:nonzero;"/><path d="M924.688,617.417c0.006,-2.522 -1.76,-5.591 -3.944,-6.856c-1.007,-0.585 -1.919,-0.663 -2.619,-0.35c-20.197,-0.366 -40.116,4.759 -57.631,14.818l-1.269,0.732l21.347,37.153l6.45,-4.188c13.659,-8.865 25.216,-20.609 33.853,-34.412l2.791,-4.456c0.625,-0.444 1.018,-1.272 1.022,-2.441Z" style="fill:#5593ce;fill-rule:nonzero;"/><path d="M885.028,653.117c0.019,-9.663 -6.74,-21.425 -15.097,-26.272c-8.353,-4.847 -15.144,-0.947 -15.165,8.716c-0.022,9.656 6.737,21.422 15.093,26.268c8.36,4.85 15.15,0.947 15.169,-8.712Z" style="fill:#d4ebfa;fill-rule:nonzero;"/><path d="M750.916,741.92l129.656,-79.006l-21.347,-37.153l-133.534,72.259l25.225,43.9Z" style="fill:#d4ebfa;fill-rule:nonzero;"/><path d="M756.181,730.342c0.025,-11.416 -7.962,-25.313 -17.834,-31.044c-9.875,-5.728 -17.897,-1.115 -17.922,10.3c-0.025,11.413 7.962,25.313 17.834,31.041c9.875,5.731 17.897,1.119 17.922,-10.297Z" style="fill:#d4ebfa;fill-rule:nonzero;"/><path d="M748.788,734.589c0.025,-11.413 -7.96,-25.313 -17.835,-31.041c-9.875,-5.731 -17.9,-1.119 -17.922,10.297c-0.025,11.416 7.96,25.313 17.838,31.041c9.872,5.731 17.897,1.118 17.919,-10.297Z" style="fill:#d4ebfa;fill-rule:nonzero;"/><path d="M572.047,844.689l171.472,-98.522l-25.222,-43.9l-171.472,98.525l25.222,43.897Z" style="fill:#d4ebfa;fill-rule:nonzero;"/><path d="M577.316,833.111c0.025,-11.413 -7.96,-25.313 -17.835,-31.041c-9.875,-5.728 -17.9,-1.119 -17.925,10.297c-0.022,11.416 7.963,25.312 17.838,31.041c9.875,5.728 17.9,1.121 17.922,-10.297Z" style="fill:#d4ebfa;fill-rule:nonzero;"/><path d="M570.919,829.401c-0.328,-6.74 -5.731,-15.187 -12.072,-18.865c-6.341,-3.682 -11.216,-1.197 -10.891,5.543c0.328,6.741 5.732,15.191 12.072,18.866c6.341,3.678 11.213,1.197 10.891,-5.544Z" style="fill:#386dab;fill-rule:nonzero;"/><path d="M757.484,729.592c0.025,-11.416 -7.962,-25.313 -17.834,-31.041c-3.978,-2.306 -7.641,-2.912 -10.616,-2.093c3.257,-3.338 8.547,-3.685 14.532,-0.213c9.871,5.731 17.859,19.628 17.834,31.041c-0.016,6.818 -2.894,11.181 -7.306,12.393c2.118,-2.168 3.381,-5.587 3.39,-10.087Z" style="fill:#fff;fill-rule:nonzero;"/><path d="M757.484,729.592c0.025,-11.416 -7.962,-25.313 -17.834,-31.041c-4.937,-2.865 -9.416,-3.143 -12.656,-1.278l-9.716,5.581l4.525,7.872c0.738,10.394 7.569,22.282 16.175,28.15l4.525,7.878l9.716,-5.581c3.244,-1.865 5.253,-5.872 5.265,-11.581Z" style="fill:#5593ce;fill-rule:nonzero;"/><path d="M747.772,735.176c0.022,-11.415 -7.963,-25.315 -17.838,-31.043c-9.875,-5.729 -17.9,-1.116 -17.925,10.296c-0.021,11.416 7.963,25.313 17.838,31.041c9.875,5.731 17.9,1.122 17.925,-10.294Z" style="fill:#d4ebfa;fill-rule:nonzero;"/><path d="M562.844,834.389l-10.885,-18.944l-36.343,20.884c-5.232,3.007 -7.035,9.682 -4.029,14.91c3.007,5.231 9.679,7.034 14.91,4.031l36.347,-20.881Z" style="fill:#ed3795;fill-rule:nonzero;"/><path d="M565.116,829.392c0.009,-4.925 -3.435,-10.922 -7.694,-13.391c-4.263,-2.472 -7.725,-0.484 -7.734,4.441c-0.013,4.925 3.434,10.922 7.693,13.394c4.26,2.472 7.725,0.481 7.735,-4.444Z" style="fill:#ed3795;fill-rule:nonzero;"/><path d="M605.934,763.317l-5.387,-3.128c-3.097,-1.794 -7.216,-1.394 -11.603,1.128l-18.675,10.728c-3.528,2.028 -6.403,6.984 -6.413,11.05l-0.019,9.294c-0.003,1.559 -0.787,3.344 -1.915,4.65l0.653,4.312l-4.603,-2.697l0.009,-0.006c-0.665,-0.347 -1.081,-1.128 -1.078,-2.272l0.016,-9.297c0.019,-8.478 6.012,-18.812 13.365,-23.034l18.675,-10.731c6.241,-3.585 12.1,-4.153 16.507,-1.6l5.384,3.128c3.094,1.794 7.216,1.394 11.606,-1.128l75.285,-43.256c0.968,-0.557 1.846,-0.597 2.475,-0.216l0,-0.006l4.593,2.69l-3.972,1.485c-0.565,1.656 -1.74,3.259 -3.115,4.05l-75.284,43.256c-6.241,3.584 -12.104,4.153 -16.504,1.6Z" style="fill:#5593ce;fill-rule:nonzero;"/><path d="M605.213,762.92c-3.1,-1.794 -7.219,-1.394 -11.604,1.128l-18.678,10.728c-3.528,2.028 -6.403,6.982 -6.412,11.05l-0.019,9.294c0,2.209 -1.563,4.894 -3.475,5.994c-1.916,1.1 -3.466,0.203 -3.459,-2.006l0.018,-9.297c0.016,-8.478 6.01,-18.813 13.363,-23.035l18.678,-10.731c6.241,-3.584 12.1,-4.153 16.503,-1.6l5.385,3.128c3.096,1.794 7.218,1.394 11.606,-1.128l75.284,-43.256c1.913,-1.1 3.466,-0.2 3.463,2.009c-0.007,2.21 -1.563,4.891 -3.482,5.994l-75.284,43.256c-6.241,3.585 -12.103,4.153 -16.503,1.597l-5.384,-3.125Z" style="fill:#5593ce;fill-rule:nonzero;"/><path d="M568.272,787.358l-0.019,9.29l-0.028,0.191c0.175,-0.581 0.275,-1.166 0.275,-1.719l0.019,-9.294l0.072,-0.812c-0.188,0.794 -0.316,1.587 -0.319,2.344Z" style="fill:#fff;fill-rule:nonzero;"/><path d="M533.025,879.139l34.425,-19.872c4.15,-2.397 3.631,-6.584 -1.163,-9.353c-4.796,-2.766 -12.046,-3.066 -16.196,-0.669l-34.425,19.872c-4.15,2.397 -3.628,6.581 1.162,9.35c4.797,2.769 12.047,3.072 16.197,0.672Z" style="fill:#f0f1f1;fill-rule:nonzero;"/><path d="M168.781,828.042l-43.009,-24.831l43.006,-24.828l43.013,24.828l-43.01,24.831Z" style="fill:#f0f1f1;fill-opacity:0.403922;fill-rule:nonzero;"/><path d="M211.791,775.042l-43.01,24.834l0,-49.662l43.01,-24.831l0,49.659Z" style="fill:#d0108c;fill-rule:nonzero;"/><path d="M168.781,750.214l-43.009,-24.831l43.006,-24.835l43.013,24.835l-43.01,24.831Z" style="fill:#ed3795;fill-rule:nonzero;"/><path d="M168.781,799.876l-43.009,-24.834l0,-49.659l43.009,24.831l0,49.662Z" style="fill:#ed3795;fill-rule:nonzero;"/><path d="M47.903,527.233l-47.903,-27.66l47.903,-27.659l47.906,27.659l-47.906,27.66Z" style="fill:#f0f1f1;fill-opacity:0.403922;fill-rule:nonzero;"/><path d="M95.809,468.198l-47.906,27.66l0,-55.319l47.906,-27.656l0,55.315Z" style="fill:#1f3e79;fill-rule:nonzero;"/><path d="M47.903,440.539l-47.903,-27.656l47.903,-27.66l47.906,27.66l-47.906,27.656Z" style="fill:#d4ebfa;fill-rule:nonzero;"/><path d="M47.903,495.858l-47.903,-27.66l0,-55.315l47.903,27.656l0,55.319Z" style="fill:#5593ce;fill-rule:nonzero;"/><path d="M1029.85,433.623l-95.941,-55.394c-5.89,-3.4 -5.15,-9.337 1.647,-13.262l92.644,-53.484c6.8,-3.929 17.084,-4.354 22.975,-0.954l95.941,55.391c5.89,3.4 5.15,9.338 -1.65,13.266l-92.641,53.484c-6.8,3.925 -17.084,4.35 -22.975,0.953Z" style="fill:#f0f1f1;fill-opacity:0.403922;fill-rule:nonzero;"/><path d="M1151.06,339.139l0,-33.106l-74.228,-0.038l-25.656,-14.816c-5.891,-3.396 -16.175,-2.975 -22.975,0.954l-23.937,13.821l-74.301,-0.043l0,34.047c-0.165,2.3 1.119,4.521 3.947,6.156l95.941,55.39c5.891,3.4 16.175,2.972 22.975,-0.953l92.641,-53.484c3.922,-2.263 5.815,-5.197 5.593,-7.928Z" style="fill:#386dab;fill-rule:nonzero;"/><path d="M1040.51,288.901c-4.307,0.107 -8.782,1.191 -12.313,3.232l-23.937,13.821l-74.301,-0.043l0,34.047c-0.165,2.3 1.119,4.521 3.947,6.156l95.941,55.39c2.834,1.635 6.678,2.375 10.663,2.279l0,-114.882Z" style="fill:#386dab;fill-rule:nonzero;"/><path d="M938.375,305.914l-8.413,-0.003l0,34.047c-0.165,2.3 1.119,4.521 3.947,6.156l4.466,2.575l0,-42.775Z" style="fill:#5593ce;fill-rule:nonzero;"/><path d="M1031.33,402.229c5.078,2.175 12.425,2.054 18.363,-0.212l0,-38.656l-18.363,0l0,38.868Z" style="fill:#5593ce;fill-rule:nonzero;"/><path d="M1029.85,367.583l-95.941,-55.394c-5.89,-3.4 -5.15,-9.338 1.647,-13.263l92.644,-53.484c6.8,-3.928 17.084,-4.353 22.975,-0.953l95.941,55.394c5.89,3.4 5.15,9.337 -1.65,13.262l-92.641,53.484c-6.8,3.925 -17.084,4.354 -22.975,0.954Z" style="fill:#d4ebfa;fill-rule:nonzero;"/><path d="M1145.47,306.629l-92.641,53.485c-6.8,3.928 -17.084,4.353 -22.975,0.953l-95.941,-55.394c-1.312,-0.756 -2.275,-1.644 -2.937,-2.606c-2.025,3.256 -1.106,6.787 2.937,9.122l95.941,55.394c5.891,3.4 16.175,2.971 22.975,-0.954l92.641,-53.484c5.284,-3.053 6.887,-7.312 4.587,-10.656c-0.925,1.481 -2.456,2.909 -4.587,4.14Z" style="fill:#fff;fill-rule:nonzero;"/><path d="M1115.77,347.876c0,2.469 -1.731,5.475 -3.875,6.71c-2.138,1.237 -3.872,0.237 -3.872,-2.235c0,-2.472 1.734,-5.478 3.872,-6.715c2.144,-1.232 3.875,-0.232 3.875,2.24Z" style="fill:#d4ebfa;fill-rule:nonzero;"/><path d="M1128.24,340.676c0,2.472 -1.738,5.475 -3.879,6.713c-2.137,1.234 -3.875,0.234 -3.875,-2.238c0,-2.472 1.738,-5.475 3.875,-6.712c2.141,-1.235 3.879,-0.235 3.879,2.237Z" style="fill:#d4ebfa;fill-rule:nonzero;"/><path d="M1140.71,333.479c0,2.472 -1.734,5.479 -3.875,6.71c-2.14,1.237 -3.875,0.234 -3.875,-2.238c0,-2.468 1.735,-5.475 3.875,-6.709c2.141,-1.238 3.875,-0.234 3.875,2.237Z" style="fill:#d4ebfa;fill-rule:nonzero;"/><path d="M1035.53,333.239l-44.894,-25.919c-2.756,-1.591 -2.412,-4.372 0.769,-6.209l43.353,-25.028c3.178,-1.835 7.994,-2.035 10.75,-0.444l44.894,25.922c2.756,1.59 2.412,4.365 -0.772,6.203l-43.35,25.031c-3.181,1.838 -7.994,2.034 -10.75,0.444Z" style="fill:#5593ce;fill-rule:nonzero;"/><path d="M1039.83,311.536l-6.216,-3.585c-0.381,-0.222 -0.331,-0.606 0.11,-0.859l6,-3.463c0.437,-0.253 1.103,-0.284 1.484,-0.062l6.213,3.587c0.381,0.219 0.334,0.604 -0.107,0.857l-6,3.465c-0.437,0.253 -1.103,0.278 -1.484,0.06Z" style="fill:#d4ebfa;fill-rule:nonzero;"/><path d="M990.631,307.32l0.125,0.072l0.644,-0.444l43.353,-25.028c3.178,-1.837 7.994,-2.037 10.75,-0.447l44.769,25.847c2.541,-1.819 2.672,-4.294 0.125,-5.759l-44.894,-25.922c-2.756,-1.591 -7.572,-1.391 -10.75,0.444l-43.353,25.028c-3.181,1.837 -3.525,4.618 -0.769,6.209Z" style="fill:#386dab;fill-rule:nonzero;"/></svg>